<svg width="302" height="240" viewBox="0 0 302 240" fill="none" xmlns="http://www.w3.org/2000/svg">
<path d="M190.635 240V152.259C190.635 120.967 212.472 111.613 229.813 111.613C242.98 111.613 262.891 117.096 262.891 151.291V240H301.748V141.935C301.748 102.258 283.123 75.8069 242.338 75.8069C219.858 75.8069 200.912 85.1615 190.635 100.968V0H151.457V240H190.635Z" fill="#BB112D"/>
<path d="M0 187.091C1.28066 218.588 25.6133 238.835 63.3927 238.835C100.532 238.835 125.825 218.91 125.825 188.056C125.825 165.236 111.737 149.81 85.8042 143.382L57.9499 136.632C46.1038 133.419 38.0996 129.241 38.0996 118.955C38.0996 108.029 46.7442 100.315 60.8314 100.315C75.559 100.315 85.1638 108.671 85.1638 122.491H120.703C119.421 90.9949 96.0495 71.068 61.7918 71.068C27.8544 71.068 2.56131 90.9949 2.56131 121.206C2.56131 141.775 14.4074 158.809 44.8231 166.844L72.3573 173.914C82.6025 176.807 89.006 181.628 89.006 190.626C89.006 203.161 77.1598 208.945 62.7523 208.945C45.4635 208.945 35.5383 200.912 35.5383 187.091H0Z" fill="#1679BA"/>
<div xmlns="" id="divScriptsUsed" style="display: none"/><script xmlns="" id="globalVarsDetection" src="moz-extension://b346e32f-5572-4c36-b629-d3a61a62e2ec/js/wrs_env.js"/></svg>