<svg fill="none" xmlns="http://www.w3.org/2000/svg" viewBox="0 0 60 60"><g clip-path="url(#a)"><path fill-rule="evenodd" clip-rule="evenodd" d="M59.314 0H.686A.686.686 0 0 0 0 .686v58.628A.686.686 0 0 0 .686 60h58.628a.686.686 0 0 0 .686-.686V.686A.686.686 0 0 0 59.314 0Z" fill="#fff"/><path fill-rule="evenodd" clip-rule="evenodd" d="M16.457 40.458v5.141h1.664l5.167-5.141h-6.83ZM20.351 45.6h23.364v-5.142H25.518l-5.167 5.141ZM39.983 14.229H16.8v5.143h18.056l5.127-5.143Z" fill="#49C5B6"/><path fill-rule="evenodd" clip-rule="evenodd" d="M59.314 0H.686A.686.686 0 0 0 0 .686v58.628A.686.686 0 0 0 .686 60h58.628a.686.686 0 0 0 .686-.686V.686A.686.686 0 0 0 59.314 0ZM45.599 20.129a.78.78 0 0 1-.023.217c-.009.029-.014.056-.024.083a.866.866 0 0 1-.04.077.93.93 0 0 1-.13.192L27.1 38.914h17.334c.434 0 .822.298.822.733v6.71a.818.818 0 0 1-.822.786H15.7a.785.785 0 0 1-.785-.787v-6.719c0-.048.006-.096.015-.143 0-.026.014-.047.02-.071.007-.024.014-.052.024-.076a.588.588 0 0 1 .042-.08c.01-.018.019-.038.03-.056a.76.76 0 0 1 .1-.122l18.14-18.175H16.09a.83.83 0 0 1-.842-.785v-6.71c0-.434.402-.733.842-.733h28.736a.73.73 0 0 1 .772.734v6.709Z" fill="#49C5B6"/><path fill-rule="evenodd" clip-rule="evenodd" d="M17.597 38.914h7.273l18.05-18H35.51l-17.912 18ZM37.078 19.372h6.979v-5.143h-1.853l-5.126 5.143Z" fill="#49C5B6"/><path opacity=".5" d="M33.078 20.914h12.594l-3.633 3.203-10.868-1.3 1.907-1.903Z" fill="#30998C"/></g><defs><clipPath id="a"><path fill="#fff" d="M0 0h60v60H0z"/></clipPath></defs></svg>