<svg fill="none" xmlns="http://www.w3.org/2000/svg" viewBox="0 0 128 41"><g clip-path="url(#a)" fill="#277C72"><path d="M0 10.836h17.33v4.007H0v-4.007Zm0 15.832 9.27-9.8 5.682.356-7.343 7.819-1.493 1.268v.357H17.33v4H0v-4ZM30.186 18.416v3.093l-5.157.953a3.468 3.468 0 0 0-.646 2.024c0 1.508.646 2.818 2.942 2.818a6.957 6.957 0 0 0 2.861-.636l1.573 3.175a8.018 8.018 0 0 1-4.717 1.509c-4.957 0-7.173-2.848-7.173-6.509 0-3.888 3.304-5.516 3.304-5.516l7.013-.911Zm2.016 8.252v-8.73c-.08-2.46-1.533-3.724-4.717-3.724-2.256 0-4.915.636-4.915.636l-.445-3.968s2.419-.714 5.965-.714c5.482 0 8.989 3.174 8.989 8.213v6.43l2.447 4.405-3.749 2.143-3.575-4.69ZM46.991 19.527l6.49-.993v-.239c0-2.817-1.17-4.324-3.586-4.324-2.541 0-4.757 1.35-4.757 7.142 0 4.445 1.813 6.19 5.482 6.19 3.022 0 6.246-1.189 6.246-1.189l.76 3.531s-2.67 1.707-7.618 1.707c-6.167 0-9.552-4.206-9.552-10.24 0-7.261 4.433-10.953 9.432-10.953 5.078 0 8.01 2.975 8.01 8.106a13.453 13.453 0 0 1-.403 3.286l-10.034 1.071-.47-3.095ZM60.897 10.836h4.875v19.832h-4.875V10.837Zm12.776 6.23c0-1.905-.848-2.46-2.861-2.46-1.13 0-2.459.673-2.459.673l-.968-3.531s2.016-1.587 3.99-1.587c3.306 0 7.175 1.904 7.175 6.353V30.67h-4.877V17.067ZM84.993 32.303c-.048.329-.075.66-.08.992 0 2.19 1.814 3.532 5.16 3.532 3.264 0 4.755-1.547 4.755-3.65 0-1.11-.363-1.628-.363-1.628l-9.472-1.706s-.642-1.032-.642-2.064c0-1.586.322-2.26.322-2.26l12.413 2.538s2.256 1.628 2.256 4.96c0 4.162-3.426 7.858-9.874 7.858-4.957 0-8.746-2.699-8.746-6.666a6.174 6.174 0 0 1 .49-2.5l3.781.594ZM89.55 6.827l3.992.278c-.04.596-.283 2.342-.525 3.77 2.498 1.111 4.594 3.372 4.594 6.549 0 4.484-4.07 6.863-8.1 6.863-4.473 0-8.342-1.983-8.342-6.863 0-4.485 3.95-6.47 5.923-6.945l.847 3.65c-1.048.317-2.225 1.23-2.225 3.286 0 2.103 1.371 3.371 3.783 3.371 2.499 0 3.546-1.268 3.546-3.371 0-1.867-.89-3.492-3.506-3.534l.013-7.054ZM101.278.875h4.877v22.698c0 2.19.483 3.135 2.499 3.135v4.445c-5.803 0-7.376-1.35-7.376-7.024V.875ZM117.078 19.527l6.488-.993v-.239c0-2.817-1.168-4.324-3.587-4.324-2.539 0-4.755 1.35-4.755 7.142 0 4.445 1.814 6.19 5.48 6.19 3.024 0 6.248-1.189 6.248-1.189l.761 3.531s-2.67 1.707-7.618 1.707c-6.166 0-9.552-4.206-9.552-10.24 0-7.261 4.434-10.953 9.432-10.953 5.077 0 8.009 2.975 8.009 8.106a13.437 13.437 0 0 1-.402 3.286l-10.037 1.071-.467-3.095Z"/></g><defs><clipPath id="a"><path fill="#fff" transform="translate(0 .875)" d="M0 0h128v40H0z"/></clipPath></defs></svg>