<svg width="602" height="228" viewBox="0 0 602 228" fill="none" xmlns="http://www.w3.org/2000/svg">
<g clip-path="url(#clip0_104_12)">
<path d="M245.4 210.4C245.4 210.8 245.7 211.1 246.1 211.1C246.4 211.1 246.7 210.9 246.8 210.5L249.1 204.9H260.5L262.8 210.4C262.9 210.7 263.2 211 263.5 211C263.9 211 264.2 210.7 264.2 210.3C264.2 210.1 264.2 210 264.1 209.8L255.9 189.9C255.7 189.4 255.4 189.1 254.9 189.1H254.8C254.3 189.1 254 189.4 253.8 189.9L245.5 209.9C245.4 210.1 245.4 210.3 245.4 210.4V210.4ZM249.6 203.5L254.7 191L259.8 203.5H249.6V203.5ZM284.9 211H298.9C299.3 211 299.6 210.7 299.6 210.3C299.6 209.9 299.3 209.6 298.9 209.6H286.2L299.1 190.9C299.3 190.7 299.3 190.5 299.3 190.2C299.3 189.9 299 189.5 298.6 189.5H285.1C284.7 189.5 284.4 189.8 284.4 190.2C284.4 190.6 284.7 190.9 285.1 190.9H297.3L284.4 209.6C284.2 209.8 284.2 210 284.2 210.3C284.2 210.6 284.5 211 284.9 211ZM307.6 211H320.2C320.6 211 320.9 210.7 320.9 210.3C320.9 209.9 320.6 209.6 320.2 209.6H308.3V200.9H318.8C319.2 200.9 319.5 200.6 319.5 200.2C319.5 199.8 319.2 199.5 318.8 199.5H308.3V191H320.1C320.5 191 320.8 190.7 320.8 190.3C320.8 189.9 320.5 189.6 320.1 189.6H307.6C307.2 189.6 306.9 190 306.9 190.4V210.4C306.9 210.6 307.2 211 307.6 211V211ZM328.1 210.3C328.1 210.7 328.4 211.1 328.8 211.1C329.2 211.1 329.5 210.8 329.5 210.3V191.7L342.8 210.5C343 210.8 343.2 211 343.5 211H343.6C343.9 211 344.2 210.7 344.2 210.3V190C344.2 189.6 343.9 189.2 343.5 189.2C343.1 189.2 342.8 189.5 342.8 190V208.2L329.8 189.7C329.6 189.4 329.4 189.2 329.1 189.2H328.9C328.5 189.2 328.2 189.6 328.2 190V210.3H328.1V210.3ZM359.2 211.3C362.9 211.3 365.6 208.9 365.6 205.4V205.3C365.6 202.2 363.7 200.4 359.2 199.3C354.6 198.3 353.6 196.9 353.6 194.6V194.5C353.6 192.2 355.5 190.4 358.3 190.4C360.3 190.4 361.9 191 363.6 192.4C363.7 192.5 363.9 192.6 364.1 192.6C364.5 192.6 364.8 192.2 364.8 191.8C364.8 191.5 364.6 191.3 364.5 191.2C362.7 189.7 360.9 189 358.3 189C354.7 189 352.1 191.5 352.1 194.7V194.8C352.1 198.1 354 199.8 358.6 200.9C363 201.9 364.1 203.2 364.1 205.5V205.6C364.1 208.1 362.1 209.9 359.2 209.9C356.5 209.9 354.6 209 352.7 207.1C352.6 207 352.4 206.9 352.2 206.9C351.8 206.9 351.5 207.3 351.5 207.7C351.5 208 351.6 208.2 351.8 208.3C354 210.2 356.3 211.3 359.2 211.3ZM371.3 210.4C371.3 210.8 371.6 211.1 372 211.1C372.3 211.1 372.6 210.9 372.7 210.5L375 204.9H386.4L388.7 210.4C388.8 210.7 389.1 211 389.4 211C389.8 211 390.1 210.7 390.1 210.3C390.1 210.1 390.1 210 390 209.8L381.8 189.9C381.6 189.4 381.3 189.1 380.8 189.1H380.7C380.2 189.1 379.9 189.4 379.7 189.9L371.4 209.9C371.4 210.1 371.3 210.3 371.3 210.4V210.4ZM375.6 203.5L380.7 191L385.8 203.5H375.6V203.5ZM397.2 210.3C397.2 210.7 397.5 211.1 397.9 211.1C398.3 211.1 398.6 210.7 398.6 210.3V202H404.9L410.8 210.6C411 210.8 411.2 211 411.4 211C411.8 211 412.1 210.6 412.1 210.2C412.1 210 412 209.8 411.9 209.6L406.4 201.6C409.7 201.1 412.1 199 412.1 195.4V195.3C412.1 193.8 411.5 192.3 410.6 191.3C409.4 190 407.5 189.2 405.2 189.2H398C397.6 189.2 397.3 189.6 397.3 190V210.3H397.2V210.3ZM398.7 200.6V190.9H405.3C408.8 190.9 410.9 192.7 410.9 195.6V195.7C410.9 198.8 408.5 200.6 405.3 200.6H398.7ZM442.6 211.3C445.8 211.3 448 210 449.9 207.9C450 207.8 450.1 207.6 450.1 207.3C450.1 206.9 449.8 206.5 449.4 206.5C449.2 206.5 449 206.6 448.9 206.7C447.1 208.6 445.2 209.7 442.6 209.7C438 209.7 434.4 205.4 434.4 200V199.9C434.4 194.5 437.9 190.3 442.6 190.3C445.3 190.3 447.2 191.5 448.8 193.1C448.9 193.2 449.1 193.3 449.3 193.3C449.7 193.3 450 192.9 450 192.5C450 192.2 449.9 192 449.7 191.9C447.8 190.1 445.8 188.9 442.6 188.9C437 188.9 432.9 194 432.9 200.1V200.2C432.9 206.4 437 211.3 442.6 211.3V211.3ZM465.2 211.3C471.1 211.3 475 206 475 200.1V200C475 194.1 471.2 188.9 465.3 188.9C459.4 188.9 455.5 194.2 455.5 200.1V200.2C455.5 206.1 459.4 211.3 465.2 211.3ZM465.3 209.9C460.5 209.9 457 205.5 457 200.2V200.1C457 194.8 460.4 190.5 465.2 190.5C470 190.5 473.5 194.9 473.5 200.2V200.3C473.5 205.6 470.1 209.9 465.3 209.9ZM482.6 210.3C482.6 210.7 482.9 211.1 483.3 211.1C483.7 211.1 484 210.8 484 210.3V192.2L491.1 203.7C491.3 204 491.5 204.1 491.7 204.1C491.9 204.1 492.1 204 492.3 203.7L499.4 192.2V210.3C499.4 210.7 499.7 211.1 500.1 211.1C500.5 211.1 500.8 210.7 500.8 210.3V190.1C500.8 189.7 500.5 189.3 500.1 189.3H500C499.7 189.3 499.4 189.5 499.3 189.8L491.8 202.2L484.3 189.8C484.1 189.5 483.9 189.3 483.6 189.3H483.5C483.1 189.3 482.8 189.7 482.8 190.1V210.3H482.6V210.3ZM509.3 210.3C509.3 210.7 509.6 211.1 510 211.1C510.4 211.1 510.7 210.7 510.7 210.3V202.9H515.9C519.9 202.9 523.4 200.6 523.4 196C523.4 191.8 520.5 189.4 516.2 189.4H510C509.6 189.4 509.3 189.8 509.3 190.2V210.3V210.3ZM510.8 201.4V190.8H516.3C519.8 190.8 522.2 192.6 522.2 196V196.1C522.2 199.3 519.8 201.4 516.2 201.4H510.8ZM527.3 210.4C527.3 210.8 527.6 211.1 528 211.1C528.3 211.1 528.6 210.9 528.7 210.5L531 204.9H542.4L544.7 210.4C544.8 210.7 545.1 211 545.4 211C545.8 211 546.1 210.7 546.1 210.3C546.1 210.1 546.1 210 546 209.8L537.8 189.9C537.6 189.4 537.3 189.1 536.8 189.1H536.7C536.2 189.1 535.9 189.4 535.7 189.9L527.4 209.9C527.3 210.1 527.3 210.3 527.3 210.4ZM531.5 203.5L536.6 191L541.7 203.5H531.5ZM553.2 210.3C553.2 210.7 553.5 211.1 553.9 211.1C554.3 211.1 554.6 210.8 554.6 210.3V191.7L567.9 210.5C568.1 210.8 568.3 211 568.6 211H568.7C569 211 569.3 210.7 569.3 210.3V190C569.3 189.6 569 189.2 568.6 189.2C568.2 189.2 567.9 189.5 567.9 190V208.2L554.9 189.7C554.7 189.4 554.5 189.2 554.2 189.2H554C553.6 189.2 553.3 189.6 553.3 190V210.3H553.2V210.3ZM584 210.3C584 210.7 584.3 211.1 584.7 211.1C585.1 211.1 585.4 210.7 585.4 210.3V202.4L592.9 190.7C593 190.5 593.1 190.3 593.1 190.1C593.1 189.7 592.7 189.3 592.4 189.3C592.1 189.3 591.9 189.5 591.8 189.8L584.8 201.1L577.8 189.8C577.6 189.5 577.4 189.3 577.1 189.3C576.7 189.3 576.4 189.7 576.4 190.1C576.4 190.3 576.5 190.4 576.5 190.6L584 202.5V210.3V210.3Z" fill="white"/>
<path d="M47.8 9.20001C42.8 1.50001 30.5 1.40001 27.7 1.50001L25.1 5.20001L19.3 5.60001L18.9 6.50001C4.79996 50 3.79996 75.5 3.19996 91.6C2.09996 117.7 6.09996 144.2 9.19996 147.8C10.3 149.1 11.5 149.3 12.3 149.2C15.3 149 16.2 145 16.9 142.8C17.2 142 17.3 140.6 17.6 137.5C18.6 127.4 21.7 100.6 34.2 57.5C43.2 26.3 50.6 13.6 47.8 9.20001V9.20001ZM261.9 114.4C262.5 110.1 262.9 109 262.9 109C263.4 109.8 264.1 110 265.1 110.1C267.9 110.3 270.5 108.6 272.8 106C281.2 96.3 288.1 92.8 291.7 92.8C292.6 92.8 293.1 93 293.4 93.2C293.6 95 291.1 102.2 285.9 108.4C281.7 113.4 274.1 122.1 267.9 124C264.4 125 260.7 123.4 261.9 114.4V114.4ZM304.1 82.3C300.2 79 295 77.1 289.6 77.2C286.7 77.2 283.8 77.8 280.9 78.9C281 78.6 281.8 76.5 281.8 76.5L276.9 74.8C276.9 74.8 276.2 75.5 275.3 76.7C275.9 75.2 276.8 73.6 276.8 73.6C275.4 72.9 266.2 70.9 261.3 74.3C256.7 77.5 249.4 92.6 247.6 103.7C245 120 245 131.7 248.9 137.3C251.4 140.9 255 143 259.7 143.7C260.5 143.8 261.3 143.9 262.2 143.9C278 143.7 297 122.7 301.7 115.5C310.5 102.2 311.5 88.6 304.1 82.3V82.3Z" fill="white"/>
<path d="M338.9 128.2C340 127.2 342.9 125 343.5 124.3C344.1 123.7 346.7 121.7 356.8 114.6C356.9 114.9 357 115.3 357.1 115.6C358.8 121.5 355.6 126.7 349.2 130.7C345.3 133.2 340.7 134.8 337.8 134.8C336.9 134.8 335.6 134.6 335 133.9C334 132.5 334.3 132.1 338.9 128.2V128.2ZM443.8 24.7C440 32.6 429.1 47.1 420.5 54.2C420 54.6 419.5 55.1 418.9 55.5C429.7 36.8 438.9 27.8 443.8 24.7V24.7ZM427.9 67.1C440.2 55.4 448.9 46.7 453.5 38.1C458.7 28.5 460.1 22.3 458.3 16.9C456.4 11.1 451 8.1 445.5 8C444.2 8 442.7 8.2 441.2 8.5C432.3 10.6 423.6 16.2 410.5 36.5C404.1 46.5 398.3 58.9 393.8 72.4C388 76.2 363.3 86.9 360.3 88.7C355.9 83.7 349.3 77.8 346 74.8C337.8 67.4 334.8 62.5 334.9 56.6C335 49.2 341.2 40 350.6 34.3C361 27.9 380 25.7 382.6 26.4C380.4 30.6 374.1 36.4 370.3 38.9C365.6 41.9 358.1 43.6 356 44C355.1 42.1 353 43 352.3 43.4C350.4 44.5 349.8 51.8 349.8 54.2C349.9 58.9 352.4 67.8 358.1 70.8C360.2 71.9 362.4 72.4 364.7 72.4C369.6 72.4 375.1 70.1 380.7 65.1C393 54.1 399.8 41.2 401.2 35C401.6 33.2 402.1 24.2 398.7 19.7C396.2 16.3 392 12.9 383.2 10.9C373.4 8.7 359.8 7.2 342.5 12.8C326.1 18.1 311.1 28 305 41.2C295.8 60.9 313.4 76.1 345 97.6C339.6 100.9 336 103.1 333.2 105.1C314.9 117.9 302.2 130.4 301.2 142.2C300.3 153.2 306 163.5 316.9 165.4C318.5 165.7 320.1 165.8 321.8 165.8C335.5 165.9 358.5 151.5 368.5 137.7C374.8 129.1 376.9 120 374.3 112.2C373.4 109.5 372.3 106.9 371.1 104.3C375.2 101.6 385.8 96.1 388.3 95C380 122.1 380 135.4 388.4 150.1C388.8 150.8 391.6 152.6 392.4 153.3L391.3 147.5C391.3 147.8 393.8 154.4 394.1 155.5L399.5 159.1C399.5 159.1 396.2 147.1 396.3 132.3C396.5 118.4 400.2 105.9 409.4 81.9C419.1 74.9 423.7 71.1 427.9 67.1V67.1ZM132.5 88.4L131.6 98.7C130.5 100.9 121.5 110.7 115.2 114C115.9 112.3 118.4 105.1 122.1 99.2C125.5 93.9 130.1 89.4 132.5 88.4ZM229.2 88.2C228.9 89.2 227.9 91 227.5 92.1C226.9 93.2 223.6 98.8 217.4 106.1C213.7 110.4 210.4 113.7 207.8 116C209 112.3 211.3 107.3 215.6 101.5C220.1 95.3 225.9 90.5 229.2 88.2V88.2ZM246 76.2C244 73.8 239.7 73.8 238.1 73.9C236.5 74 234.8 74.1 234.8 74.1C234.8 74.1 233.4 76.2 233.1 76.6C232.1 75.8 230 72.7 227.4 72.6C225.2 72.5 222.5 73.4 220.1 74.9C215.2 77.8 211.4 84.4 203.5 92.8C200.7 95.8 197.6 99.1 194.7 102.4C189.8 107.8 183.7 112.8 181.5 114.8C180.6 115.6 179.9 116.1 179.4 116.5C179.7 113.4 180.3 105.8 183.9 97.4C189.2 85.2 188.9 80.9 188.9 80.9C188.9 80.9 175.1 71.7 169.8 84.4C169.5 85.1 169.3 85.8 169.2 86.6C169 87.4 168.9 88.3 168.5 89C165.8 93.9 161.9 100.6 159.1 104.6C150.2 117 144.2 124.6 141.6 125.4C141.3 123.1 142.7 114.1 144.3 106.5C145.9 103.6 156.2 84.5 162.3 65.1C185.5 -8.7 152.3 8.2 142.5 39.5C138.3 53 134.9 70.8 134.4 75.4C133.7 75.2 130 71.6 124.8 73.2C119.9 74.7 115.1 80 110.8 86.5C107.8 91.1 105.3 96.3 104.4 97.2C100.5 101.5 89.4001 113.1 82.3001 119.6C84.2001 114.3 86.4 105.6 90.2 94.2C92.9 85.9 93.1 81.4 92.5 76.7C92.1 73.3 89.1001 67.6 82.3001 67.6C75.2001 67.6 66.7 74 57.9 82.2C57.9 82.2 60.6 74.3 57.8 73.1C54.9 71.8 47.3001 72.8 40.4001 77L39.7 79.4L36.7 80.6C36.7 80.6 29.8 104.6 27 125.7C26.2 131.6 26.9 137 29.5 139.8C32.6 143.3 40.7 144 40.7 144C40.7 144 45 124.1 51.9 113.3C60 100.6 68.8001 93.3 78.4001 88.4C74.3001 98.6 59.9 136.5 66.6 142.3C67.9 143.4 69.6001 143.9 71.4001 143.9C75.8001 143.9 80.1 140.6 82.7 138.9C86.1 136.7 95.1 129.2 100.5 124.4C100.5 128.4 101.5 132.9 105 135.7C106.1 136.6 107.7 137.1 109 137.1C115.1 137.1 123.5 132.3 129.9 125.6C129.8 137.8 135.6 143.9 140.1 143.9C152.6 143.9 161.1 128.4 164.6 124.2C164.7 125 164.8 127.4 164.9 128.2C166.5 135.4 170.5 136.9 173.5 136.9C181.8 136.8 193.2 127.2 195.3 125.6C195.4 129.3 196.2 133.9 199.6 136.1C200.6 136.8 201.8 137.1 203.3 137.1C208.3 137.1 215.1 132.9 219.3 129.3C221.7 127.3 223.9 125.1 225.7 123.1C224.2 137 221.6 154.7 215.2 186.6C213.8 193.6 211.4 205.6 205.2 204.4C199.3 204.4 190.6 193.1 182.1 184.4C167.9 170.1 156.9 159.7 136.3 150.5C131.4 148.3 118.6 145.2 109.3 145.9C92.9 147.1 85.6 149.1 83.2 156.1C83.2 156.1 80.1001 156.2 79.4001 161.9C78.5001 168.7 81.2 180.6 83.5 186.9C85.7 193 89.4 194.9 92.1 195.5C93.7 195.8 95.2 195.3 96.3 194.2C97.4 193.1 98 191.5 98 189.8C98 187.3 96.7 186.2 95.7 185.7C95.4 181.7 101.3 177.5 111.2 177.2C126.8 176.7 146.7 184.6 157.5 191.8C170.4 200.4 186.7 214.9 191.7 219.2C198.7 225.3 208.9 230.6 216.1 227.4C230.9 220.9 232.8 192.8 237.9 157C241.1 134.6 243 120.6 243.9 112.1C245.1 100.2 245.8 93 246.5 90.8C247.8 85.3 249.1 80 246 76.2Z" fill="white"/>
<path d="M186.4 72.5C190.1 73 194.7 70.9 196.8 64.7C198.7 59.1 199.3 55.2 205.7 47.6C208.3 44.5 211.8 41.7 211.8 41.7C211.8 41.7 204.8 42.6 202.2 43.9C201.9 43.2 201.1 42.2 201.1 42.2C201.1 42.2 191.2 42.9 183.7 52.3C179.3 57.7 178.2 62.9 179.7 66.8C180.3 69.1 183.1 72.1 186.4 72.5V72.5ZM526.6 72.9C524.9 79.3 522.6 84.6 517.4 92.1C515.9 94.2 513.7 96.9 510.7 100.2C515.4 83.4 522.4 75.6 526.6 72.9ZM440 96.2C437.2 102.4 432.7 108.8 429.4 112.4C426.4 115.7 424.7 117 423.6 117.1C423.3 117.1 423.1 117 422.7 116.9H422.6C422.2 116.2 422.7 109.7 430 100C434.1 94.6 440.1 90.2 443.8 88.4C443.4 89.5 440.4 95.2 440 96.2V96.2ZM597.4 105.1C597.4 105.1 597.8 104.3 597.9 103.2C598.1 101.8 597.1 101 596.6 100.4C596.6 100.4 583.5 86 579.7 84.6C576 83.2 573.4 85.2 572.3 86.5C571.5 87.5 571.2 89 571.2 90C571.3 90.9 571.6 92 572.3 92.7C573.6 93.9 575.3 93.3 575.3 93.3C577.3 94.7 573.4 124.8 546.3 130.3C529.8 133.7 519.2 120.9 516.9 116.8C516.9 116.8 524.2 109.5 529.2 103.4C546.1 83 540.5 67.8 534.7 63.1C530.7 59.9 521.1 57.2 512 65.8C506.8 70.7 502.1 78.3 499.7 91.2C498.6 97 498.3 102.8 498.8 108.4C493.7 112.6 488.6 115.7 486.4 116.7C486.3 116.7 486.2 116.8 486.1 116.8C485.8 114.3 486.5 106.1 486.8 104.4C489.3 87.7 491.2 79 496.5 61.1C533.6 40.6 556.5 49 556.5 49C557.2 45.1 557.3 39.6 551.2 31.9C545 24.2 520 30.8 503.3 38.8C503.6 37.8 504.2 36.2 504.5 35.2C506.9 26.5 508.4 22.2 508 20.4C507.6 18.4 504.7 14.4 500.1 12.6C499.8 13.5 499.6 14.3 499.6 14.3L496.5 12.9C496.5 12.9 494.5 18.8 485.8 46.2C482 48.2 473.7 53.5 471.5 54.9C463.9 59.9 462.1 60.7 460.8 63.5C459.8 65.6 460.6 69.9 462.5 72.4C464.7 75.2 469.1 78.8 472.2 75.6C473.6 74.2 475.9 72.6 477.6 71.4C475.6 78.5 470.6 92.6 468.2 97.7C462.8 108.9 458.2 112.6 455 114.1C455.5 111.2 456.6 105.8 458 99.6C458.4 97.7 458.8 96 459.2 94.4C459.4 93.5 459.6 92.7 459.8 91.9C462 84.2 462.2 80.2 458.9 77.6C457.9 76.8 451.2 72 451.2 72C451.2 72 449.8 73.5 448.6 75C448.6 75 444.9 72.8 441.8 73.1C434.9 74 427.1 80.9 420.3 87.9C415 93.3 403.6 110 405.7 125.7C406.8 133.7 413 137.2 417.9 137.2C418.8 137.2 419.6 137.1 420.5 137C428.9 135.5 438 126.9 438.8 125.9C438.9 125.8 439 125.6 439.1 125.5C440.9 136.1 446.1 137.3 447.5 137.3C453.1 137.3 463.1 128 465.8 125.4C466.4 131.1 470.2 138.8 473.9 141.5C476.9 143.7 479.1 144.1 480.7 144.1C486 144.1 494.6 138.4 504.8 127.7C506.4 131.2 518.6 143.2 536.4 145.5C560 148.8 579.4 135 588.1 125.4C595.4 117.5 601.1 109.6 597.4 105.1V105.1Z" fill="white"/>
</g>
<defs>
<clipPath id="clip0_104_12">
<rect width="602" height="228" fill="white"/>
</clipPath>
</defs>
</svg>
