<svg xmlns="http://www.w3.org/2000/svg" width="24" height="24"><path d="M2.6 12.5c0-5.1 4.2-9.4 9.4-9.4V.5c-3 0-5.6 1-7.8 2.9-5 4.4-5.5 11.9-1.2 16.9l2-1.7c-1.5-1.6-2.4-3.8-2.4-6.1z" fill="#FF269E"/><path d="M12 21.9c-2.8 0-5.4-1.2-7.1-3.2l-2 1.7c.4.5.9.9 1.4 1.3 5 4.3 12.6 3.6 16.8-1.5l-2-1.7c-1.7 2.1-4.3 3.4-7.1 3.4z" fill="#A832D7"/><path d="M12 .5v2.6c5.1 0 9.4 4.2 9.4 9.4 0 2.3-.8 4.4-2.2 6l2 1.7c1.9-2.3 2.8-4.7 2.8-7.7-.1-6.6-5.4-12-12-12z" fill="#F1F5F9"/><text font-family="Inconsolata-Regular_Medium, Inconsolata, monospace" font-size="11.5" x="10" y="2" fill="#F1F5F9"><tspan x="10" y="16">D</tspan></text></svg>
