<?xml version="1.0" standalone="no"?>
<!DOCTYPE svg PUBLIC "-//W3C//DTD SVG 20010904//EN"
 "http://www.w3.org/TR/2001/REC-SVG-20010904/DTD/svg10.dtd">
<svg version="1.0" xmlns="http://www.w3.org/2000/svg"
 width="700.000000pt" height="700.000000pt" viewBox="0 0 700.000000 700.000000"
 preserveAspectRatio="xMidYMid meet">
<metadata>
Created by potrace 1.11, written by Peter Selinger 2001-2013
</metadata>
<g transform="translate(0.000000,700.000000) scale(0.100000,-0.100000)"
fill="#000000" stroke="none">
<path d="M3397 6854 c-1 -1 -54 -5 -117 -8 -469 -25 -901 -137 -1310 -340
-405 -202 -794 -501 -1065 -818 -43 -51 -83 -98 -89 -103 -16 -15 -63 -77
-137 -180 -241 -335 -431 -739 -538 -1145 -17 -63 -33 -133 -37 -155 -3 -22
-8 -43 -10 -47 -3 -4 -7 -24 -9 -45 -3 -21 -8 -51 -12 -68 -3 -16 -7 -37 -8
-45 -1 -8 -5 -42 -9 -75 -4 -33 -10 -71 -12 -85 -17 -101 -22 -419 -11 -610 9
-163 44 -395 83 -562 2 -10 6 -28 9 -40 11 -51 60 -212 97 -318 86 -248 217
-518 355 -729 53 -82 171 -250 183 -261 3 -3 21 -25 41 -50 20 -25 46 -56 58
-69 19 -22 20 -25 4 -36 -15 -11 -15 -14 4 -41 40 -56 196 -199 363 -334 58
-47 111 -90 118 -97 29 -28 224 -165 317 -224 122 -76 195 -117 300 -168 149
-73 217 -101 373 -157 l123 -44 1017 0 1017 0 75 24 c388 123 836 375 1150
645 113 97 268 248 340 331 69 79 92 112 84 119 -15 14 -538 455 -557 470 -16
12 -21 9 -54 -30 -264 -315 -668 -606 -1053 -756 -142 -56 -314 -109 -415
-129 -11 -2 -42 -8 -70 -14 -217 -43 -495 -57 -744 -37 -525 42 -1070 260
-1481 591 -87 70 -268 244 -313 300 -27 34 -29 40 -15 50 14 10 10 18 -28 61
-251 282 -461 668 -559 1031 -23 82 -62 269 -69 329 -4 28 -9 69 -12 91 -13
89 -18 346 -10 464 8 111 39 325 58 395 5 22 11 47 13 55 31 155 142 450 241
635 173 325 446 655 714 865 25 19 47 37 50 41 23 29 441 289 466 289 2 0 38
16 81 36 200 94 491 179 712 210 25 3 57 8 71 10 63 10 196 18 315 18 123 0
332 -11 344 -18 3 -2 35 -7 70 -10 36 -4 67 -9 70 -10 3 -2 24 -7 46 -10 73
-12 269 -64 375 -101 275 -96 604 -278 815 -452 136 -111 293 -263 370 -357
22 -27 45 -54 50 -60 42 -46 195 -259 195 -271 0 -2 13 -23 29 -47 16 -24 53
-90 83 -148 319 -615 393 -1300 214 -1975 -64 -239 -175 -500 -292 -682 -19
-29 -34 -56 -34 -59 0 -2 -5 -10 -10 -17 -6 -7 -38 -50 -72 -97 -33 -47 -64
-87 -67 -90 -4 -3 -21 -23 -38 -46 l-32 -41 40 -34 c23 -19 51 -42 63 -52 11
-10 43 -37 71 -60 27 -23 65 -56 85 -73 19 -17 100 -86 179 -153 l144 -121 33
37 c18 21 33 41 34 45 0 4 6 13 13 20 54 56 215 293 307 453 154 267 294 627
346 890 2 11 10 54 19 95 20 104 23 124 35 215 5 44 12 100 15 125 4 25 8 151
9 280 3 212 0 296 -19 455 -11 97 -23 174 -46 290 -76 386 -234 790 -448 1144
-151 248 -306 447 -518 661 -399 403 -843 679 -1395 866 -71 23 -128 41 -128
39 0 -2 -21 3 -47 11 -51 16 -194 49 -253 59 -19 3 -42 8 -50 10 -8 2 -36 7
-62 10 -26 3 -78 9 -115 15 -104 14 -505 33 -516 24z m-2107 -5428 c0 -2 -8
-10 -17 -17 -16 -13 -17 -12 -4 4 13 16 21 21 21 13z m-190 -160 c0 -2 -8 -10
-17 -17 -16 -13 -17 -12 -4 4 13 16 21 21 21 13z"/>
<path d="M3148 4774 c-5 -4 -8 -555 -8 -1224 l0 -1217 338 2 c340 2 405 8 552
45 247 63 425 198 543 410 35 63 98 239 112 310 32 171 39 255 39 450 0 153
-9 323 -18 338 -2 4 -7 30 -10 57 -19 142 -88 326 -166 444 -110 163 -250 266
-450 329 -58 19 -95 27 -210 47 -53 10 -714 18 -722 9z m740 -293 c263 -55
408 -218 457 -511 10 -64 18 -105 22 -125 8 -40 10 -452 2 -530 -23 -223 -60
-358 -128 -464 -85 -131 -230 -208 -451 -237 -25 -4 -106 -7 -181 -8 l-135 -1
1 950 c1 522 3 952 3 954 5 11 329 -11 410 -28z"/>
</g>
</svg>
